<?xml version="1.0" standalone="no"?>
<!DOCTYPE svg PUBLIC "-//W3C//DTD SVG 20010904//EN"
 "http://www.w3.org/TR/2001/REC-SVG-20010904/DTD/svg10.dtd">
<svg version="1.0" xmlns="http://www.w3.org/2000/svg"
 width="500.000000pt" height="500.000000pt" viewBox="0 0 500.000000 500.000000"
 preserveAspectRatio="xMidYMid meet">

<g transform="translate(0.000000,500.000000) scale(0.100000,-0.100000)"
fill="#000000" stroke="none">
<path d="M2205 4651 c-401 -74 -648 -214 -905 -513 -167 -192 -285 -439 -326
-683 -24 -137 -24 -407 -1 -533 20 -109 87 -319 120 -377 37 -66 88 -81 142
-42 28 21 23 68 -20 183 -68 180 -89 295 -89 489 -1 304 58 511 213 745 150
226 382 407 641 503 162 60 240 72 460 71 182 0 202 -2 295 -27 119 -33 277
-95 362 -143 327 -182 569 -517 639 -881 23 -120 23 -376 1 -500 -9 -51 -37
-153 -63 -227 -55 -163 -55 -192 -2 -221 35 -18 40 -19 65 -5 33 18 63 75 104
195 137 401 110 805 -78 1180 -130 259 -387 510 -658 644 -226 111 -383 150
-635 156 -132 4 -185 1 -265 -14z"/>
<path d="M2388 4323 c-8 -10 -18 -30 -22 -45 -3 -15 -6 -585 -6 -1265 l0
-1238 27 -22 c37 -30 83 -30 112 0 l22 24 -3 1262 -3 1263 -24 19 c-29 24 -83
25 -103 2z"/>
<path d="M2711 4121 c-15 -15 -20 -41 -26 -139 -9 -157 -2 -198 39 -223 43
-26 68 -24 99 9 27 28 27 29 27 176 0 143 -1 148 -25 171 -30 31 -86 34 -114
6z"/>
<path d="M1750 4043 c-8 -3 -23 -12 -32 -21 -17 -14 -18 -76 -18 -1038 l0
-1022 30 -25 c31 -27 53 -26 98 3 l22 15 0 1026 c0 964 -1 1027 -17 1042 -21
18 -62 28 -83 20z"/>
<path d="M3053 3880 c-61 -27 -85 -70 -80 -142 2 -41 11 -67 30 -95 l27 -39 0
-820 0 -821 23 -21 c34 -32 91 -30 122 4 l25 27 0 815 0 815 34 38 c80 88 63
193 -39 240 -51 24 -89 23 -142 -1z m125 -113 c12 -24 11 -31 -2 -53 -30 -44
-106 -20 -106 35 0 37 19 52 60 49 27 -2 38 -9 48 -31z"/>
<path d="M2046 3849 l-26 -20 1 -937 c0 -515 4 -970 8 -1011 8 -82 22 -101 76
-101 57 0 66 15 75 131 11 122 11 1349 1 1690 -5 175 -10 241 -20 253 -19 23
-82 21 -115 -5z"/>
<path d="M2720 3577 l-25 -13 -3 -714 c-4 -800 2 -1033 25 -1055 18 -19 73
-19 98 -1 11 8 21 33 26 67 4 30 8 422 8 871 l1 817 -26 20 c-30 24 -67 27
-104 8z"/>
<path d="M1370 3449 c-14 -6 -36 -20 -48 -32 -73 -67 -68 -159 12 -245 21 -23
21 -30 26 -499 l5 -475 24 -19 c27 -22 69 -25 96 -5 28 20 33 109 34 577 l1
405 25 34 c72 97 52 201 -48 249 -47 23 -87 26 -127 10z m100 -109 c11 -11 20
-29 20 -40 0 -11 -9 -29 -20 -40 -11 -11 -29 -20 -40 -20 -25 0 -60 34 -60 58
0 22 10 36 35 50 29 16 42 15 65 -8z"/>
<path d="M3379 3011 l-24 -19 2 -389 c3 -360 4 -390 22 -413 14 -20 27 -25 62
-25 42 0 44 2 57 39 14 45 30 670 18 748 -4 26 -14 55 -22 63 -22 21 -87 19
-115 -4z"/>
<path d="M4125 1284 c-42 -14 -90 -56 -111 -96 -36 -69 0 -185 68 -220 62 -32
100 -33 162 -5 58 27 72 52 41 77 -12 10 -20 9 -41 -5 -54 -35 -134 -13 -155
43 -25 64 19 142 81 142 16 0 46 -8 66 -17 36 -17 36 -17 55 6 22 27 19 36
-21 56 -51 26 -104 33 -145 19z"/>
<path d="M165 1279 c-7 -11 3 -281 11 -311 4 -12 15 -18 35 -18 l29 0 0 78 c0
107 8 114 54 48 60 -87 58 -87 113 -5 l48 72 5 -99 5 -99 35 0 35 0 3 173 2
172 -39 0 c-37 0 -42 -3 -67 -47 -51 -91 -75 -124 -85 -118 -5 4 -30 42 -56
86 -44 77 -47 79 -84 79 -21 0 -41 -5 -44 -11z"/>
<path d="M784 1265 c-14 -21 -134 -300 -134 -311 0 -2 18 -4 40 -4 36 0 40 3
48 33 l8 32 81 3 81 3 7 -28 c10 -40 24 -53 56 -53 22 0 29 5 29 19 0 31 -118
304 -137 318 -27 21 -61 15 -79 -12z m70 -122 c22 -63 22 -63 -24 -63 -31 0
-40 4 -40 17 0 25 33 102 41 97 4 -2 14 -25 23 -51z"/>
<path d="M1130 1159 c0 -74 3 -151 6 -171 6 -35 9 -38 40 -38 l34 0 0 50 c0
48 1 50 28 50 20 0 38 -13 70 -50 36 -42 49 -50 78 -50 18 0 34 3 34 7 0 3
-14 28 -31 55 l-32 49 20 22 c43 47 54 93 32 140 -19 42 -59 57 -173 64 l-106
6 0 -134z m194 45 c39 -39 1 -84 -71 -84 l-43 0 0 50 0 50 49 0 c32 0 55 -6
65 -16z"/>
<path d="M1574 1277 c-2 -7 -3 -85 -2 -172 3 -158 3 -160 26 -163 32 -5 52 15
52 50 0 32 27 91 39 86 5 -2 32 -31 61 -65 50 -60 54 -63 97 -63 l45 0 -36 45
c-20 25 -52 65 -71 89 -19 23 -35 47 -35 51 0 5 27 39 61 77 l61 68 -42 0
c-38 0 -48 -6 -111 -67 l-69 -66 0 71 0 72 -35 0 c-20 0 -38 -6 -41 -13z"/>
<path d="M2010 1151 c0 -76 3 -153 6 -170 l7 -31 128 0 129 0 0 30 0 30 -64 0
c-103 0 -126 7 -126 41 l0 29 74 0 c41 0 77 3 79 8 3 4 3 19 0 35 -5 26 -8 27
-63 27 -77 0 -90 6 -90 41 l0 29 90 0 90 0 0 35 0 35 -130 0 -130 0 0 -139z"/>
<path d="M2384 1276 c-15 -38 -1 -51 59 -54 l57 -3 0 -139 c0 -80 4 -140 9
-140 5 0 21 4 35 10 l26 10 0 129 0 130 53 3 c50 3 52 4 52 33 l0 30 -143 3
c-118 2 -143 0 -148 -12z"/>
<path d="M2805 1279 c-3 -8 -4 -84 -3 -169 l3 -155 33 -3 32 -3 0 50 0 51 38
0 c122 0 194 75 161 168 -16 45 -52 60 -163 68 -78 6 -97 4 -101 -7z m176 -69
c22 -12 26 -59 7 -78 -7 -7 -36 -12 -65 -12 l-53 0 0 50 0 50 46 0 c25 0 54
-5 65 -10z"/>
<path d="M3209 1283 c-3 -35 4 -308 8 -319 4 -12 28 -14 122 -12 l116 3 3 33
3 32 -85 0 -86 0 0 83 c0 45 -3 106 -6 135 -7 51 -7 52 -40 52 -19 0 -34 -3
-35 -7z"/>
<path d="M3676 1281 c-13 -21 -126 -306 -126 -317 0 -9 11 -14 30 -14 24 0 35
7 51 35 21 35 22 35 90 35 l69 0 14 -35 c12 -29 20 -35 45 -35 16 0 32 3 35 8
4 7 -113 305 -124 315 -10 9 -80 15 -84 8z m78 -178 c7 -21 4 -23 -33 -23 -47
0 -51 13 -25 76 l16 39 18 -35 c10 -19 21 -45 24 -57z"/>
<path d="M4440 1121 c0 -199 -16 -181 158 -181 l112 0 0 35 0 35 -95 0 -95 0
0 35 0 35 53 0 c80 0 97 8 97 41 l0 29 -74 0 c-68 0 -74 2 -80 23 -12 46 -11
47 89 47 l95 0 0 35 0 35 -130 0 -130 0 0 -169z"/>
<path d="M1912 563 l3 -168 32 -3 c34 -3 38 2 45 68 3 21 10 25 63 35 101 19
135 49 135 122 0 83 -52 111 -213 112 l-67 1 2 -167z m193 73 c16 -23 11 -54
-9 -68 -6 -4 -32 -8 -58 -8 l-48 0 0 50 0 50 50 0 c41 0 52 -4 65 -24z"/>
<path d="M2280 695 l0 -35 55 0 54 0 3 -132 3 -133 38 -3 37 -3 0 135 0 136
50 0 50 0 0 35 0 35 -145 0 -145 0 0 -35z"/>
<path d="M2650 723 c0 -5 16 -35 36 -68 63 -103 84 -156 84 -212 l0 -53 35 0
c34 0 35 1 35 38 0 60 19 111 72 199 50 84 53 103 17 103 -35 0 -56 -18 -89
-77 l-32 -57 -34 60 c-19 32 -34 62 -34 67 0 4 -20 7 -45 7 -25 0 -45 -3 -45
-7z"/>
</g>
</svg>
